PathFileType	4	(X/Y/Z)	 s08c0301.trc
DataRate	CameraRate	NumFrames	NumMarkers	Units	OrigDataRate	OrigDataStartFrame	OrigNumFrames
200	200	4	50	mm	200	1251	2000
Frame#	Time	racr			lacr			c7			jug			rlel			rdr			llel			ldr			s2			lic			ric			lasi			rasi			rpsi			lpsi			rgt			lgt			rth1			rth2			rth3			rth4			rlfc			rmfc			rsh1			rsh2			rsh3			rsh4			rlmal			rmmal			rcal			rtoe			rmt5			lth1			lth2			lth4			lth3			llfc			lmfc			llmal			lmmal			lcal			lmt5			lsh1			lsh2			lsh3			lsh4			ltoe			SBIKE			LBIKE			RBIKE			
		X1	Y1	Z1	X2	Y2	Z2	X3	Y3	Z3	X4	Y4	Z4	X5	Y5	Z5	X6	Y6	Z6	X7	Y7	Z7	X8	Y8	Z8	X9	Y9	Z9	X10	Y10	Z10	X11	Y11	Z11	X12	Y12	Z12	X13	Y13	Z13	X14	Y14	Z14	X15	Y15	Z15	X16	Y16	Z16	X17	Y17	Z17	X18	Y18	Z18	X19	Y19	Z19	X20	Y20	Z20	X21	Y21	Z21	X22	Y22	Z22	X23	Y23	Z23	X24	Y24	Z24	X25	Y25	Z25	X26	Y26	Z26	X27	Y27	Z27	X28	Y28	Z28	X29	Y29	Z29	X30	Y30	Z30	X31	Y31	Z31	X32	Y32	Z32	X33	Y33	Z33	X34	Y34	Z34	X35	Y35	Z35	X36	Y36	Z36	X37	Y37	Z37	X38	Y38	Z38	X39	Y39	Z39	X40	Y40	Z40	X41	Y41	Z41	X42	Y42	Z42	X43	Y43	Z43	X44	Y44	Z44	X45	Y45	Z45	X46	Y46	Z46	X47	Y47	Z47	X48	Y48	Z48	X49	Y49	Z49	X50	Y50	Z50	
1251	6.2550	763.277101	1389.086451	-67.745040	757.760426	1386.243065	-389.235739	760.479728	1429.217465	-231.485358	694.617440	1283.516932	-221.911613	690.903867	1146.359800	74.012362	802.021465	894.428403	-26.836173	690.922961	1128.457290	-502.977682	814.099208	893.627129	-411.439984	172.513740	1249.283867	-219.133349	337.761892	1216.897776	-366.566887	337.952319	1250.088635	-59.875329	348.460648	1162.674127	-329.809149	354.898178	1191.519198	-92.226774	209.683670	1288.357251	-171.145281	212.924906	1284.864193	-266.355990	253.299549	1147.601655	-20.004814	252.542223	1105.393529	-396.956400	376.127024	1025.735707	-19.099945	453.635655	983.674768	-24.035303	498.439876	908.644028	-33.159871	477.892145	1009.487587	-34.882872	573.575341	816.187515	-56.332626	552.006173	810.853717	-168.465289	495.676686	712.232991	-25.501830	474.490164	626.143551	-45.774736	416.060863	563.470516	-47.713209	499.808758	617.732812	-76.323753	350.625033	461.165931	-54.450327	369.697362	479.357933	-142.568156	264.954075	442.465235	-100.012120	558.252562	394.904006	-94.809082	466.548355	374.856502	-29.506555	304.690286	983.121859	-410.878737	361.936215	914.602809	-416.927158	394.534767	928.303231	-406.474324	375.873857	826.982650	-424.072517	399.705249	696.254608	-409.099818	397.052941	672.009294	-304.176524	112.785080	399.630575	-396.086955	142.609309	399.186663	-312.233951	54.326471	428.431234	-355.117650	159.680551	241.602120	-414.730910	315.580832	598.919289	-430.903799	272.819002	527.786931	-409.469722	198.389030	480.217900	-408.868074	290.878511	517.040295	-376.063145	238.213145	204.960021	-346.101471	-134.171347	943.774679	-221.600199	26.399412	84.523686	-426.298846	17.476127	80.355283	-27.889550	
1252	6.2600	762.686737	1388.816542	-68.814162	755.196881	1386.135915	-389.850960	758.758387	1428.865824	-232.356185	692.800036	1283.344313	-222.323167	689.954836	1145.974332	73.345773	801.872199	894.285005	-26.849543	689.651769	1127.955772	-502.611092	813.674516	892.487725	-408.653844	170.166851	1249.524615	-218.446620	335.483521	1217.717584	-365.834419	336.239249	1248.707008	-59.245237	346.487198	1163.759142	-329.037250	352.727003	1190.083373	-90.993820	207.481663	1287.894998	-169.987281	210.806964	1284.942714	-265.372390	250.050583	1145.915952	-20.009090	252.025669	1106.343982	-397.178690	371.760851	1022.532826	-18.727234	448.830316	979.027020	-23.816461	492.592391	904.014888	-32.726331	472.768401	1004.920566	-33.097785	566.956298	810.679180	-55.726961	545.815167	804.499804	-167.906503	490.730517	705.062571	-25.166062	471.933382	618.263503	-45.064810	415.121754	554.091973	-47.215893	497.726235	610.386284	-75.260670	352.375187	450.018332	-54.095537	371.210243	468.664477	-142.322308	266.982067	430.402491	-99.727564	560.740584	385.827727	-94.861482	469.295298	364.747431	-29.407330	305.648548	986.117746	-410.551040	364.598507	918.021218	-417.546712	396.901218	932.272351	-406.900242	380.212845	830.726024	-424.914786	405.388323	700.260247	-410.103433	403.228722	676.403636	-304.952469	113.344386	409.591269	-396.422654	142.969812	408.637905	-312.537622	55.413441	439.836014	-355.358063	156.957753	250.800250	-414.674635	320.119373	604.253185	-431.486372	275.989315	534.054956	-409.877035	200.584337	488.142444	-409.268921	293.841838	523.256427	-376.589761	234.656500	212.571498	-346.145305	-134.171116	943.755143	-221.483930	26.414085	84.598091	-426.230098	17.445200	80.398099	-27.888221	
1253	6.2650	762.059667	1388.595254	-70.002173	752.571727	1385.990729	-390.641529	757.022393	1428.582912	-233.359287	690.850058	1283.292194	-222.869434	689.211519	1145.610405	72.609901	801.737763	894.232566	-27.084553	688.369719	1127.437366	-502.358537	813.200422	892.136964	-408.586561	167.908263	1249.540613	-218.072039	333.254264	1218.388132	-365.242954	334.591563	1247.317452	-58.677191	344.504962	1164.744082	-328.163569	350.388110	1188.437523	-89.857657	205.247723	1287.327327	-168.965691	208.674441	1284.871338	-264.330074	246.753823	1144.072712	-20.162184	251.603701	1107.439122	-397.483589	367.200333	1018.882839	-18.574773	443.586215	973.960817	-23.600507	486.290393	898.689207	-32.532090	468.336032	999.890554	-32.696093	559.942334	804.625552	-55.273345	539.327182	797.814056	-167.305746	485.474062	697.615225	-24.921661	468.916931	610.387930	-44.208918	413.749153	544.669649	-46.568477	495.157808	602.830798	-74.160350	353.689240	438.835885	-53.549052	372.288100	457.789080	-141.865020	268.595322	418.539043	-99.406822	562.742142	376.461664	-95.050148	471.447002	354.469052	-29.405022	306.547416	989.168128	-410.231595	367.254787	921.376462	-418.275966	399.245930	936.167439	-407.348722	384.429375	834.426099	-426.056489	411.086170	704.517111	-410.994281	409.493292	681.028905	-305.652528	114.351778	419.704174	-396.739724	146.538905	417.383052	-313.159358	57.019582	451.153925	-355.615685	154.788602	260.028111	-414.593208	324.907753	610.068877	-432.125812	279.393371	540.793529	-410.348766	203.093246	496.253482	-409.597444	297.089118	529.512897	-377.041203	231.681919	220.900438	-346.512197	-134.169660	943.713781	-221.364256	26.408059	84.534543	-426.293639	17.457032	80.391022	-27.873070	
1254	6.2700	761.256789	1388.382170	-71.206428	750.046544	1385.929344	-391.308850	755.213967	1428.383782	-234.340742	688.944085	1283.259794	-223.520853	688.590401	1145.212280	71.702373	801.641489	894.005357	-26.960629	687.095497	1127.054692	-502.314202	813.058663	892.097098	-408.530223	165.770778	1249.610372	-217.533441	331.006262	1219.190265	-364.468996	332.685310	1245.892555	-58.003737	342.375768	1165.737114	-327.308625	348.102436	1186.793057	-88.688567	203.562464	1286.619618	-168.574924	206.498518	1284.825355	-263.346232	243.408837	1141.984696	-20.215277	251.167859	1108.375119	-397.816277	362.409883	1014.816770	-18.577967	438.038864	969.060348	-23.323678	479.613053	893.001326	-32.299842	463.596905	994.638766	-32.021138	552.615304	798.329083	-54.728354	532.535361	790.818569	-166.710086	479.623312	690.104426	-24.437965	465.467333	602.292701	-43.361115	411.864664	535.228934	-45.931236	492.276466	595.096072	-73.439248	354.461843	427.727627	-53.053542	372.896946	446.864537	-141.419626	269.659621	406.923518	-98.919111	564.101679	366.822662	-95.062940	473.075180	344.010271	-29.414544	307.385557	992.266183	-409.920585	369.875502	924.697588	-419.063665	401.479398	939.995141	-407.776326	388.694644	838.119658	-427.081283	416.886825	709.008724	-411.769809	415.829020	685.879760	-306.274770	115.818529	429.819509	-397.085507	148.869143	425.542866	-313.249612	58.946288	462.544703	-355.773553	153.316881	269.718457	-414.760502	329.769697	615.971204	-432.703556	283.079052	547.604640	-410.835780	205.941524	504.504466	-409.869954	300.517920	536.107483	-377.468857	228.704758	227.553114	-344.149348	-134.144253	943.774743	-221.339547	26.429862	84.645112	-426.222305	17.474643	80.390430	-27.880603	
